<svg height="200px" width="200px" version="1.1" id="Layer_1" xmlns="http://www.w3.org/2000/svg" xmlns:xlink="http://www.w3.org/1999/xlink" viewBox="0 0 512 512" xml:space="preserve" fill="#000000"><g id="SVGRepo_bgCarrier" stroke-width="0"></g><g id="SVGRepo_tracerCarrier" stroke-linecap="round" stroke-linejoin="round"></g><g id="SVGRepo_iconCarrier"> <circle style="fill:#FFD15D;" cx="256" cy="256" r="256"></circle> <path style="fill:#F9B54C;" d="M265.85,511.793C402.668,506.615,512,394.085,512,256c0-12.079-0.857-23.959-2.476-35.593 L391.789,102.671l-4.258,4.094l-14.846-14.846l-2.074,26.359l-12.143-12.143l-3.279,31.715l-88.845,85.397l-90.874,198.546 L265.85,511.793z"></path> <path style="fill:#324A5E;" d="M324.813,426.667H187.187c-9.125,0-16.52-7.397-16.52-16.52V300.965c0-9.125,7.397-16.52,16.52-16.52 h137.626c9.125,0,16.52,7.397,16.52,16.52v109.182C341.333,419.269,333.936,426.667,324.813,426.667z"></path> <path style="fill:#2B3B4E;" d="M324.813,284.444h-69.387v142.222h69.387c9.125,0,16.52-7.397,16.52-16.52v-109.18 C341.333,291.842,333.936,284.444,324.813,284.444z"></path> <circle style="fill:#FC6F58;" cx="256" cy="227.556" r="128"></circle> <path style="fill:#F1543F;" d="M256,99.556c-0.193,0-0.381,0.014-0.574,0.014V355.54c0.193,0,0.381,0.014,0.574,0.014 c70.692,0,128-57.308,128-128S326.692,99.556,256,99.556z"></path> <circle style="fill:#E6F3FF;" cx="256" cy="227.556" r="85.333"></circle> <path style="fill:#CFDBE6;" d="M256,142.222c-0.193,0-0.381,0.014-0.574,0.014v170.637c0.193,0.002,0.381,0.014,0.574,0.014 c47.128,0,85.333-38.205,85.333-85.333S303.128,142.222,256,142.222z"></path> <circle style="fill:#FC6F58;" cx="256" cy="227.556" r="56.889"></circle> <path style="fill:#F1543F;" d="M256,170.667c-0.193,0-0.383,0.012-0.574,0.014v113.748c0.191,0.002,0.381,0.014,0.574,0.014 c31.418,0,56.889-25.471,56.889-56.889S287.418,170.667,256,170.667z"></path> <circle style="fill:#E6F3FF;" cx="256" cy="227.556" r="28.444"></circle> <path style="fill:#CFDBE6;" d="M256,199.111c-0.193,0-0.381,0.026-0.574,0.029v56.83c0.193,0.003,0.381,0.029,0.574,0.029 c15.71,0,28.444-12.734,28.444-28.444S271.71,199.111,256,199.111z"></path> <polygon style="fill:#324A5E;" points="294.474,220.108 274.353,220.108 356.447,138.012 383.459,138.014 383.459,131.119 363.342,131.119 370.664,123.797 397.674,123.797 397.674,116.903 377.558,116.901 391.789,102.671 386.913,97.795 372.688,112.021 372.684,91.919 365.789,91.92 365.792,118.917 358.471,126.238 358.467,106.136 351.572,106.136 351.575,133.132 269.477,215.231 269.477,195.11 262.582,195.11 262.582,227.004 294.474,227.004 "></polygon> </g></svg>