<?xml version="1.0" encoding="UTF-8" standalone="no" ?>
<!DOCTYPE svg PUBLIC "-//W3C//DTD SVG 1.1//EN" "http://www.w3.org/Graphics/SVG/1.1/DTD/svg11.dtd">
<svg xmlns="http://www.w3.org/2000/svg" xmlns:xlink="http://www.w3.org/1999/xlink" version="1.1" width="1080" height="1080" viewBox="0 0 1080 1080" xml:space="preserve">
<desc>Created with Fabric.js 5.2.4</desc>
<defs>
</defs>
<rect x="0" y="0" width="100%" height="100%" fill="transparent"></rect>
<g transform="matrix(1 0 0 1 540 540)" id="908de5af-bb5a-4466-a7a3-b73d0258cc35"  >
</g>
<g transform="matrix(1 0 0 1 540 540)" id="70f66105-3c99-4429-ad6e-85a8bf25c660"  >
<rect style="stroke: none; stroke-width: 1; stroke-dasharray: none; stroke-linecap: butt; stroke-dashoffset: 0; stroke-linejoin: miter; stroke-miterlimit: 4; fill: rgb(255,255,255); fill-rule: nonzero; opacity: 1; visibility: hidden;" vector-effect="non-scaling-stroke"  x="-540" y="-540" rx="0" ry="0" width="1080" height="1080" />
</g>
<g transform="matrix(1.88 0 0 1.6 245.8 540)"  >
<g style="" vector-effect="non-scaling-stroke"   >
		<g transform="matrix(1 0 0 1 -371.25 -22.24)"  >
<path style="stroke: none; stroke-width: 1; stroke-dasharray: none; stroke-linecap: butt; stroke-dashoffset: 0; stroke-linejoin: miter; stroke-miterlimit: 4; fill: rgb(42,109,178); fill-rule: nonzero; opacity: 1;" vector-effect="non-scaling-stroke"  transform=" translate(-65.58, -65.73)" d="M 87.796991 0 C 42.896651000000006 0 45.700511000000006 19.4715 45.700511000000006 19.4715 L 45.750511 39.64377 L 88.59781100000001 39.64377 L 88.59781100000001 45.700450000000004 L 28.73172000000001 45.700450000000004 C 28.73172000000001 45.700450000000004 1.0658141036401503e-14 42.44201 1.0658141036401503e-14 87.74688 C 1.0658141036401503e-14 133.05173000000002 25.07769000000001 131.44512 25.07769000000001 131.44512 L 40.04421100000001 131.44512 L 40.04421100000001 110.42191 C 40.04421100000001 110.42191 39.23748100000001 85.34421999999999 64.72145100000002 85.34421999999999 C 90.20543100000002 85.34421999999999 107.21837000000002 85.34421999999999 107.21837000000002 85.34421999999999 C 107.21837000000002 85.34421999999999 131.09473000000003 85.73017999999999 131.09473000000003 62.26875 C 131.09473000000003 38.80731 131.09473000000003 23.475919999999995 131.09473000000003 23.475919999999995 C 131.09473000000003 23.475919999999995 134.71982000000003 -3.552713678800501e-15 87.79693100000003 -3.552713678800501e-15 z M 64.170911 13.56498 C 68.433901 13.56498 71.87942100000001 17.01049 71.87942100000001 21.273490000000002 C 71.87942100000001 25.536480000000005 68.433901 28.982000000000003 64.170911 28.982000000000003 C 59.907911000000006 28.982000000000003 56.462401 25.536480000000005 56.462401 21.273490000000002 C 56.462401 17.010490000000004 59.907911 13.564980000000002 64.170911 13.564980000000002 z" stroke-linecap="round" />
</g>
		<g transform="matrix(1 0 0 1 -325.54 22.25)"  >
<path style="stroke: none; stroke-width: 1; stroke-dasharray: none; stroke-linecap: butt; stroke-dashoffset: 0; stroke-linejoin: miter; stroke-miterlimit: 4; fill: rgb(80,80,80); fill-rule: nonzero; opacity: 1;" vector-effect="non-scaling-stroke"  transform=" translate(-111.29, -110.22)" d="M 89.072161 175.94801 C 133.97251 175.94801 131.16863 156.47652000000002 131.16863 156.47652000000002 L 131.11863 136.30424000000002 L 88.271321 136.30424000000002 L 88.271321 130.24756000000002 L 148.13742 130.24756000000002 C 148.13742 130.24756000000002 176.86914 133.50599000000003 176.86914 88.20112000000003 C 176.86916 42.89627000000003 151.79145 44.50288000000003 151.79145 44.50288000000003 L 136.82493 44.50288000000003 L 136.82493 65.52609000000004 C 136.82493 65.52609000000004 137.63168 90.60377000000004 112.14768 90.60377000000004 C 86.66371099999999 90.60377000000004 69.65077099999999 90.60377000000004 69.65077099999999 90.60377000000004 C 69.65077099999999 90.60377000000004 45.77441099999999 90.21781000000004 45.77441099999999 113.67927000000005 C 45.77441099999999 137.14069000000003 45.77441099999999 152.47209000000004 45.77441099999999 152.47209000000004 C 45.77441099999999 152.47209000000004 42.14932099999999 175.94801000000004 89.072211 175.94801000000004 z M 112.69824 162.38304000000002 C 108.43525 162.38304000000002 104.98973 158.93752000000003 104.98973 154.67453000000003 C 104.98973 150.41153000000003 108.43525 146.96602000000004 112.69824 146.96602000000004 C 116.96124 146.96602000000004 120.40675 150.41153000000006 120.40675 154.67453000000003 C 120.40677000000001 158.93752000000003 116.96124 162.38304000000002 112.69824 162.38304000000002 z" stroke-linecap="round" />
</g>
		<g transform="matrix(1 0 0 1 -217.03 0.21)"  >
<path style="stroke: none; stroke-width: 1; stroke-dasharray: none; stroke-linecap: butt; stroke-dashoffset: 0; stroke-linejoin: miter; stroke-miterlimit: 4; fill: rgb(80,80,80); fill-rule: nonzero; opacity: 1;" vector-effect="non-scaling-stroke"  transform=" translate(-219.81, -88.19)" d="M 211.33512 110.31397 L 228.28082999999998 110.31397 L 228.28082999999998 130.71305 L 211.33512 130.71305 L 211.33512 110.31397000000001 M 211.33512 45.663330000000016 L 228.28082999999998 45.663330000000016 L 228.28082999999998 66.06241000000001 L 211.33512 66.06241000000001 L 211.33512 45.663330000000016" stroke-linecap="round" />
</g>
		<g transform="matrix(1 0 0 1 -56.24 -3.32)"  >
<path style="stroke: none; stroke-width: 1; stroke-dasharray: none; stroke-linecap: butt; stroke-dashoffset: 0; stroke-linejoin: miter; stroke-miterlimit: 4; fill: rgb(42,109,178); fill-rule: nonzero; opacity: 1;" vector-effect="non-scaling-stroke"  transform=" translate(-380.59, -84.65)" d="M 385.53045 56.03127 C 389.22466999999995 49.39229 393.10479 46.17109 398.2448 43.01208 C 403.38463 39.853269999999995 409.97175 38.596019999999996 416.93219 38.59592 C 426.30172 38.59602 433.52973 41.88877 438.61626 48.47422 C 443.7025 55.0063 446.24569 64.32241 446.24583 76.42258000000001 L 446.24583 130.71305 L 431.38823 130.71305 L 431.38823 76.90444000000001 C 431.3881 68.28443000000001 429.86218 61.88629000000001 426.81049 57.71003 C 423.75853 53.53392 419.10047000000003 51.445820000000005 412.83631 51.44574 C 405.17986 51.44582 399.12974 53.98901 394.68593000000004 59.07532 C 390.24196000000006 64.16178 388.02001000000007 71.09532 388.02009000000004 79.87595999999999 L 388.02009000000004 130.71305 L 373.16249000000005 130.71305 L 373.16249000000005 76.90444000000001 C 373.16243000000003 68.23088000000001 371.63650000000007 61.832750000000004 368.58475000000004 57.71003 C 365.53285000000005 53.53392 360.82125 51.445820000000005 354.44994 51.44574 C 346.90063000000004 51.44582 340.90406 54.01578 336.46021 59.15563 C 332.01628 64.24209 329.79434000000003 71.14885000000001 329.79437 79.87596 L 329.79437 130.71305 L 314.93677 130.71305 L 314.93677 40.764330000000015 L 329.79437 40.764330000000015 L 329.79437 52.73851000000002 C 333.16741 47.22388000000002 336.67272 44.72516000000002 341.38436 42.10156000000002 C 346.09591 39.47815000000002 352.22796 38.596020000000024 358.70645 38.59592000000002 C 365.23838 38.596020000000024 370.77986000000004 40.25579000000002 375.33090000000004 43.57523000000002 C 379.93535 46.89485000000002 383.33518000000004 49.71353000000002 385.53045000000003 56.03127000000002" stroke-linecap="round" />
</g>
		<g transform="matrix(1 0 0 1 72.14 14.87)"  >
<path style="stroke: none; stroke-width: 1; stroke-dasharray: none; stroke-linecap: butt; stroke-dashoffset: 0; stroke-linejoin: miter; stroke-miterlimit: 4; fill: rgb(42,109,178); fill-rule: nonzero; opacity: 1;" vector-effect="non-scaling-stroke"  transform=" translate(-508.97, -102.85)" d="M 513.22549 139.06544 C 509.04927000000004 149.77358999999998 504.98015000000004 156.76067999999998 501.01818000000003 160.02669 C 497.05611000000005 163.29266 491.75557000000003 164.92565 485.11652000000004 164.92568 L 473.31075000000004 164.92568 L 473.31075000000004 152.55774 L 481.98438000000004 152.55774 C 486.05346000000003 152.55772 489.21237 151.59399 491.46113 149.66653 C 493.70980000000003 147.73904 496.19946000000004 143.18806999999998 498.93008000000003 136.0136 L 501.58035 129.26745 L 465.1993 40.76433 L 480.86002 40.76433 L 508.969 111.11708 L 537.07797 40.76433 L 552.73869 40.76433 L 513.22549 139.06544" stroke-linecap="round" />
</g>
		<g transform="matrix(1 0 0 1 151.97 -8.91)"  >
<path style="stroke: none; stroke-width: 1; stroke-dasharray: none; stroke-linecap: butt; stroke-dashoffset: 0; stroke-linejoin: miter; stroke-miterlimit: 4; fill: rgb(80,80,80); fill-rule: nonzero; opacity: 1;" vector-effect="non-scaling-stroke"  transform=" translate(-588.8, -79.07)" d="M 571.77248 5.74859 L 605.8245099999999 5.74859 L 605.8245099999999 17.23311 L 586.54977 17.23311 L 586.54977 140.9126 L 605.8245099999999 140.9126 L 605.8245099999999 152.39712 L 571.7724799999999 152.39712 L 571.7724799999999 5.748590000000007" stroke-linecap="round" />
</g>
		<g transform="matrix(1 0 0 1 240.23 13.78)"  >
<path style="stroke: none; stroke-width: 1; stroke-dasharray: none; stroke-linecap: butt; stroke-dashoffset: 0; stroke-linejoin: miter; stroke-miterlimit: 4; fill: rgb(42,109,178); fill-rule: nonzero; opacity: 1;" vector-effect="non-scaling-stroke"  transform=" translate(-677.06, -101.76)" d="M 651.68231 117.22074 L 651.68231 164.92568 L 636.8247 164.92568 L 636.8247 40.76433 L 651.68231 40.76433 L 651.68231 54.41726 C 654.7876600000001 49.06326 658.69613 45.10123 663.40776 42.53118 C 668.17286 39.90777 673.84819 38.596019999999996 680.4337800000001 38.59592 C 691.3560400000001 38.59602 700.2170600000001 42.93282 707.0168400000001 51.60637 C 713.8699700000001 60.280069999999995 717.2965900000002 71.68426 717.2966800000002 85.81899999999999 C 717.2965900000002 99.95383999999999 713.8699700000002 111.35802999999999 707.0168400000001 120.03163999999998 C 700.2170600000001 128.70528 691.3560400000001 133.04207999999997 680.4337800000001 133.04207999999997 C 673.84819 133.04207999999997 668.17286 131.75709999999998 663.40776 129.18713999999997 C 658.69613 126.56362999999997 654.7876600000001 122.57484999999997 651.68231 117.22073999999998 M 697.2110700000001 60.27998999999998 C 692.7671100000001 54.06932999999998 686.6366700000001 50.96395999999998 678.8197600000001 50.963879999999975 C 671.0027400000001 50.96395999999997 664.8455400000001 54.06932999999997 660.34815 60.27998999999998 C 655.90423 66.43726999999998 653.68227 74.95024999999998 653.68231 85.81899999999997 C 653.68227 96.68782999999998 655.90423 105.22760999999997 660.34815 111.43832999999998 C 664.84554 117.59553999999999 671.00274 120.67413999999998 678.8197600000001 120.67413999999998 C 686.6366700000001 120.67413999999998 692.7671100000001 117.59553999999999 697.2110700000001 111.43832999999998 C 701.70842 105.22760999999998 703.95722 96.68782999999998 703.95722 85.81899999999997 C 703.95722 74.95024999999997 701.70842 66.43726999999997 697.2110700000001 60.27998999999997 z" stroke-linecap="round" />
</g>
		<g transform="matrix(1 0 0 1 338.13 14.87)"  >
<path style="stroke: none; stroke-width: 1; stroke-dasharray: none; stroke-linecap: butt; stroke-dashoffset: 0; stroke-linejoin: miter; stroke-miterlimit: 4; fill: rgb(42,109,178); fill-rule: nonzero; opacity: 1;" vector-effect="non-scaling-stroke"  transform=" translate(-774.96, -102.85)" d="M 779.21669 139.06544 C 775.04047 149.77358999999998 770.9713499999999 156.76067999999998 767.00938 160.02669 C 763.0473099999999 163.29266 757.74677 164.92565 751.10772 164.92568 L 739.3019499999999 164.92568 L 739.3019499999999 152.55774 L 747.9755799999999 152.55774 C 752.0446599999999 152.55772 755.2035699999999 151.59399 757.45233 149.66653 C 759.7009999999999 147.73904 762.19065 143.18806999999998 764.9212799999999 136.0136 L 767.5715499999999 129.26745 L 731.1904999999999 40.76433 L 746.8512199999999 40.76433 L 774.9601999999999 111.11708 L 803.0691699999999 40.76433 L 818.7298799999999 40.76433 L 779.2166899999999 139.06544" stroke-linecap="round" />
</g>
		<g transform="matrix(1 0 0 1 419.81 -8.91)"  >
<path style="stroke: none; stroke-width: 1; stroke-dasharray: none; stroke-linecap: butt; stroke-dashoffset: 0; stroke-linejoin: miter; stroke-miterlimit: 4; fill: rgb(80,80,80); fill-rule: nonzero; opacity: 1;" vector-effect="non-scaling-stroke"  transform=" translate(-856.64, -79.07)" d="M 873.66285 5.74859 L 873.66285 152.39712 L 839.61085 152.39712 L 839.61085 140.9126 L 858.80525 140.9126 L 858.80525 17.233109999999996 L 839.61085 17.233109999999996 L 839.61085 5.7485899999999965 L 873.66285 5.7485899999999965" stroke-linecap="round" />
</g>
</g>
</g>
</svg>